REM DIRINDEX 1\2,1\4,1\3\5,1\3\6,1\3\7
REM DIRNAME cjc081,folder01,folder02,folder03,folder04,folder05,folder06
TITLE ""
FILE "CD1Track55.mp3" MP3
  TRACK 01 AUDIO
    TITLE "0:"
    INDEX 01 00:00:00
  TRACK 02 AUDIO
    TITLE "5:cjc081_0963"
    INDEX 01 00:00:19
  TRACK 03 AUDIO
    TITLE "0:"
    INDEX 01 00:01:32
  TRACK 04 AUDIO
    TITLE "6:cjc081_0964"
    INDEX 01 00:02:00
  TRACK 05 AUDIO
    TITLE "0:"
    INDEX 01 00:03:15
  TRACK 06 AUDIO
    TITLE "5:cjc081_0965"
    INDEX 01 00:03:59
  TRACK 07 AUDIO
    TITLE "0:"
    INDEX 01 00:05:18
  TRACK 08 AUDIO
    TITLE "6:cjc081_0966"
    INDEX 01 00:05:61
  TRACK 09 AUDIO
    TITLE "0:"
    INDEX 01 00:07:11
  TRACK 10 AUDIO
    TITLE "5:cjc081_0967"
    INDEX 01 00:07:52
  TRACK 11 AUDIO
    TITLE "0:"
    INDEX 01 00:09:00
  TRACK 12 AUDIO
    TITLE "6:cjc081_0968"
    INDEX 01 00:09:44
  TRACK 13 AUDIO
    TITLE "0:"
    INDEX 01 00:11:50
  TRACK 14 AUDIO
    TITLE "5:cjc081_0969"
    INDEX 01 00:12:18
  TRACK 15 AUDIO
    TITLE "0:"
    INDEX 01 00:13:35
  TRACK 16 AUDIO
    TITLE "6:cjc081_0970"
    INDEX 01 00:14:06
  TRACK 17 AUDIO
    TITLE "0:"
    INDEX 01 00:15:17
  TRACK 18 AUDIO
    TITLE "5:cjc081_0971"
    INDEX 01 00:15:58
  TRACK 19 AUDIO
    TITLE "0:"
    INDEX 01 00:16:63
  TRACK 20 AUDIO
    TITLE "6:cjc081_0972"
    INDEX 01 00:17:31
  TRACK 21 AUDIO
    TITLE "0:"
    INDEX 01 00:19:18
  TRACK 22 AUDIO
    TITLE "5:cjc081_0973"
    INDEX 01 00:19:58
  TRACK 23 AUDIO
    TITLE "0:"
    INDEX 01 00:21:06
  TRACK 24 AUDIO
    TITLE "6:cjc081_0974"
    INDEX 01 00:21:55
  TRACK 25 AUDIO
    TITLE "0:"
    INDEX 01 00:23:32
  TRACK 26 AUDIO
    TITLE "5:cjc081_0975"
    INDEX 01 00:24:04
  TRACK 27 AUDIO
    TITLE "0:"
    INDEX 01 00:25:62
  TRACK 28 AUDIO
    TITLE "6:cjc081_0976"
    INDEX 01 00:26:30
  TRACK 29 AUDIO
    TITLE "0:"
    INDEX 01 00:28:12
  TRACK 30 AUDIO
    TITLE "5:cjc081_0977"
    INDEX 01 00:28:55
  TRACK 31 AUDIO
    TITLE "0:"
    INDEX 01 00:30:18
  TRACK 32 AUDIO
    TITLE "6:cjc081_0978"
    INDEX 01 00:30:65
  TRACK 33 AUDIO
    TITLE "0:"
    INDEX 01 00:32:00
  TRACK 34 AUDIO
    TITLE "5:cjc081_0979"
    INDEX 01 00:32:47
  TRACK 35 AUDIO
    TITLE "0:"
    INDEX 01 00:33:62
  TRACK 36 AUDIO
    TITLE "6:cjc081_0980"
    INDEX 01 00:34:32
  TRACK 37 AUDIO
    TITLE "0:"
    INDEX 01 00:35:63
  TRACK 38 AUDIO
    TITLE "5:cjc081_0981"
    INDEX 01 00:36:31
  TRACK 39 AUDIO
    TITLE "0:"
    INDEX 01 00:38:08
  TRACK 40 AUDIO
    TITLE "6:cjc081_0982"
    INDEX 01 00:38:51
  TRACK 41 AUDIO
    TITLE "0:"
    INDEX 01 00:41:57
  TRACK 42 AUDIO
    TITLE "5:cjc081_0983"
    INDEX 01 00:42:27
  TRACK 43 AUDIO
    TITLE "0:"
    INDEX 01 00:43:39
  TRACK 44 AUDIO
    TITLE "6:cjc081_0984"
    INDEX 01 00:44:11
  TRACK 45 AUDIO
    TITLE "0:"
    INDEX 01 00:45:47
  TRACK 46 AUDIO
    TITLE "5:cjc081_0985"
    INDEX 01 00:46:19
  TRACK 47 AUDIO
    TITLE "0:"
    INDEX 01 00:47:50
  TRACK 48 AUDIO
    TITLE "6:cjc081_0986"
    INDEX 01 00:48:20
  TRACK 49 AUDIO
    TITLE "0:"
    INDEX 01 00:49:23
  TRACK 50 AUDIO
    TITLE "5:cjc081_0987"
    INDEX 01 00:49:65
  TRACK 51 AUDIO
    TITLE "0:"
    INDEX 01 00:51:05
  TRACK 52 AUDIO
    TITLE "6:cjc081_0988"
    INDEX 01 00:51:42
  TRACK 53 AUDIO
    TITLE "0:"
    INDEX 01 00:52:63
  TRACK 54 AUDIO
    TITLE "5:cjc081_0989"
    INDEX 01 00:53:31
  TRACK 55 AUDIO
    TITLE "0:"
    INDEX 01 00:54:50
  TRACK 56 AUDIO
    TITLE "6:cjc081_0990"
    INDEX 01 00:55:20
  TRACK 57 AUDIO
    TITLE "0:"
    INDEX 01 00:56:35
  TRACK 58 AUDIO
    TITLE "7:cjc081_0991"
    INDEX 01 00:58:01
  TRACK 59 AUDIO
    TITLE "0:"
    INDEX 01 01:09:20
